<?xml version="1.0" encoding="UTF-8" standalone="no"?>
<svg
   inkscape:version="1.1.2 (0a00cf5339, 2022-02-04)"
   height="74.982002"
   width="80"
   sodipodi:docname="icon.svg"
   id="svg16"
   xml:space="preserve"
   enable-background="new 0 0 96 96"
   viewBox="0 0 80 74.982002"
   y="0px"
   x="0px"
   version="1.1"
   xmlns:inkscape="http://www.inkscape.org/namespaces/inkscape"
   xmlns:sodipodi="http://sodipodi.sourceforge.net/DTD/sodipodi-0.dtd"
   xmlns="http://www.w3.org/2000/svg"
   xmlns:svg="http://www.w3.org/2000/svg"
   xmlns:rdf="http://www.w3.org/1999/02/22-rdf-syntax-ns#"
   xmlns:cc="http://creativecommons.org/ns#"
   xmlns:dc="http://purl.org/dc/elements/1.1/"><metadata
     id="metadata22"><rdf:RDF><cc:Work
         rdf:about=""><dc:format>image/svg+xml</dc:format><dc:type
           rdf:resource="http://purl.org/dc/dcmitype/StillImage" /></cc:Work></rdf:RDF></metadata><defs
     id="defs20"><rect
       x="5.4744525"
       y="14.890511"
       width="72.262773"
       height="51.459854"
       id="rect848" /></defs><sodipodi:namedview
     inkscape:current-layer="svg16"
     inkscape:window-maximized="1"
     inkscape:window-y="0"
     inkscape:window-x="0"
     inkscape:cy="5.7431957"
     inkscape:cx="15.450005"
     inkscape:zoom="6.1812276"
     fit-margin-bottom="0"
     fit-margin-right="0"
     fit-margin-left="0"
     fit-margin-top="0"
     showgrid="false"
     id="namedview18"
     inkscape:window-height="1056"
     inkscape:window-width="1920"
     inkscape:pageshadow="2"
     inkscape:pageopacity="0"
     guidetolerance="10"
     gridtolerance="10"
     objecttolerance="10"
     borderopacity="1"
     bordercolor="#666666"
     pagecolor="#ffffff"
     inkscape:document-rotation="0"
     inkscape:pagecheckerboard="0" /><circle
     style="fill:#a0d57f;fill-opacity:1;stroke:#579531;stroke-width:0.5;stroke-linecap:square;stroke-linejoin:round;paint-order:stroke fill markers;stroke-opacity:1;stroke-miterlimit:4;stroke-dasharray:none;opacity:1"
     id="path8012"
     cx="40"
     cy="37.491001"
     r="36" /><g
     aria-label="💡"
     id="text3356"
     style="font-size:55.7957px;line-height:1.25;font-family:monospace;-inkscape-font-specification:monospace;letter-spacing:0px;word-spacing:0px;fill:#579531;stroke-width:1.39489"><path
       d="m 65.200694,15.19179 -7.57383,4.794943 q -0.40866,-0.40866 -1.253224,-1.879835 l 7.601075,-4.876675 q 0.02724,0.02724 1.225979,1.961567 z m 1.471176,13.349557 h -8.554614 v -2.315739 h 8.554614 z m -1.471176,11.061062 -1.144247,1.961568 -7.682807,-4.713211 q 0.245196,-0.54488 1.171492,-2.0433 z M 23.626359,18.025166 q -0.381416,0.653856 -1.171491,1.961567 L 14.799305,15.19179 q 0.762832,-1.280467 1.144248,-1.961567 z m 31.357838,9.807838 q 0,2.615423 -0.844564,4.767699 -0.27244,0.762831 -2.125032,4.331795 -1.525663,2.969595 -2.179519,4.767699 -0.517636,1.443931 -0.626612,3.269279 0,0.871808 -0.13622,2.615423 -0.108976,0.572124 -0.6811,1.716372 -0.490392,0.980784 -0.490392,1.743616 0,0.54488 -0.245196,0.871807 0.217952,0.708344 0.217952,0.844564 0,0.163464 -0.13622,0.435904 -0.108976,0.27244 -0.108976,0.435904 0,0.13622 0.05449,0.381416 0.08173,0.27244 0.08173,0.40866 0,1.49842 -0.163464,2.506447 -0.190708,1.22598 -1.416688,2.17952 -0.354171,0.27244 -2.288495,1.389444 -0.326928,0.217952 -0.980784,0.599368 -0.299684,0.05449 -0.871808,0.245195 -0.13622,0.13622 -0.517636,0.381416 -0.08173,0.02724 -1.525663,0.02724 -1.443932,0 -1.525664,-0.02724 -0.163464,-0.13622 -0.517636,-0.381416 -0.299684,-0.05449 -0.871808,-0.245195 -0.517636,-0.354172 -1.552907,-0.980784 -0.762832,-0.40866 -1.525664,-0.844564 -0.762832,-0.40866 -1.253224,-1.08976 -0.40866,-0.572124 -0.40866,-2.043299 0,-0.13622 -0.05449,-0.40866 -0.05449,-0.27244 -0.05449,-0.40866 0,-0.163464 0.05449,-0.490392 0.05449,-0.326928 0.05449,-0.490392 0,-0.190708 -0.108976,-0.517636 -0.108976,-0.326928 -0.108976,-0.517636 0,-0.190708 0.05449,-0.572124 0.08173,-0.381416 0.08173,-0.572124 0,-1.117003 -0.27244,-1.988811 -0.190707,-0.299684 -0.544879,-0.926296 -0.381416,-0.762832 -0.517636,-1.661884 -0.02724,-1.852591 -0.653856,-5.448798 -0.762832,-2.206764 -1.90708,-4.440771 -2.261251,-4.468016 -2.370227,-4.685967 -0.980784,-2.424716 -0.980784,-5.176359 0,-6.484071 4.304551,-10.270986 Q 33.406953,13.993055 40,13.993055 q 6.62029,0 10.679645,3.568963 4.304552,3.759671 4.304552,10.270986 z m -33.101453,0.708343 h -8.554615 v -2.315739 h 8.554615 z m 1.743615,8.200443 -7.601074,4.822187 q -0.40866,-0.626612 -1.22598,-1.879836 l 7.655563,-4.876675 q 0.408659,0.626612 1.171491,1.934324 z m 29.369026,-9.181226 q 0,-5.666751 -3.732427,-8.881542 Q 45.748483,15.654938 40,15.654938 q -5.748483,0 -9.262958,3.051328 -3.732427,3.214791 -3.732427,8.854298 0,2.424715 0.871807,4.495259 0.245196,0.572124 2.125032,4.004867 1.443932,2.642667 2.152275,4.658723 0.735588,2.016055 0.735588,6.157143 0,1.307711 0.980784,2.016055 0.762832,0.54488 6.129899,0.54488 5.149115,0 6.129898,-0.54488 0.790076,-0.435904 0.95354,-1.934323 0.02724,-0.27244 0.02724,-2.342984 0,0.02724 0.13622,-1.035272 0.245196,-1.879835 0.790076,-3.378255 0.245196,-0.653856 3.078571,-6.075411 1.879836,-3.568963 1.879836,-6.565802 z m -7.110683,22.394563 h -0.299683 q -0.926296,0 -2.806132,0.13622 -1.852591,0.13622 -2.778887,0.13622 -0.926296,0 -2.806132,-0.13622 -1.879835,-0.13622 -2.806131,-0.13622 h -0.27244 v 0.980784 q 0,0.163464 0.299684,0.599368 0.299684,0.408659 0.299684,0.653855 0,0.163464 -0.27244,0.354172 -0.245196,0.190708 -0.245196,0.326928 0,0.108976 0.245196,0.40866 0.27244,0.326928 0.27244,0.490392 0,0.13622 -0.217952,0.435904 -0.217952,0.326928 -0.217952,0.463148 0,0.13622 0.217952,0.381416 0.217952,0.27244 0.217952,0.40866 0,0.13622 -0.190708,0.40866 -0.163464,0.27244 -0.163464,0.40866 0,0.245196 1.525664,1.307711 1.416687,1.008028 1.879835,1.171492 0.40866,0.05449 0.81732,0.13622 0.54488,0.08173 0.572124,0.381416 0.326928,0.02724 0.844564,0.02724 0.517636,0 0.81732,-0.02724 0.299684,-0.381416 0.899051,-0.381416 0.40866,0 1.961568,-0.95354 1.471176,-0.899052 1.825348,-1.307712 0.13622,-0.163463 0.13622,-0.599367 0,-0.163464 -0.190708,-0.463148 -0.163464,-0.299684 -0.163464,-0.463148 0,-0.13622 0.217952,-0.463148 0.217952,-0.299684 0.217952,-0.435904 0,-0.13622 -0.217952,-0.490392 -0.217952,-0.326928 -0.217952,-0.463148 0,-0.108976 0.245196,-0.435904 0.245196,-0.354172 0.27244,-0.490392 -0.163464,-0.13622 -0.517636,-0.435903 v -0.245196 q 0,-0.27244 0.299684,-0.708344 0.299683,-0.435904 0.299683,-0.980784 z"
       id="path1287" /></g><text
     xml:space="preserve"
     style="font-style:normal;font-variant:normal;font-weight:normal;font-stretch:normal;font-size:42.6667px;line-height:1.25;font-family:monospace;-inkscape-font-specification:monospace;letter-spacing:0px;word-spacing:0px;fill:#000000;fill-opacity:1;stroke:none"
     x="19.242693"
     y="65.702438"
     id="text10982"><tspan
       sodipodi:role="line"
       id="tspan10980"
       x="19.242693"
       y="65.702438"
       style="font-style:normal;font-variant:normal;font-weight:bold;font-stretch:normal;font-size:42.6667px;font-family:'Ubuntu Mono';-inkscape-font-specification:'Ubuntu Mono Bold'">VC</tspan></text></svg>
